<svg width="21" height="16" viewBox="0 0 21 16" fill="none" xmlns="http://www.w3.org/2000/svg">
<g id="Group 1">
<path id="Vector" fill-rule="evenodd" clip-rule="evenodd" d="M14.6661 9.27119C15.9361 10.1333 16.826 11.3013 16.826 12.8586V15.6395H20.5339V12.8586C20.5339 10.8378 17.2246 9.64198 14.6661 9.27119Z" fill="#7e6f6f"/>
<path id="Vector_2" d="M7.55629 8.22374C9.60411 8.22374 11.2642 6.56365 11.2642 4.51583C11.2642 2.46802 9.60411 0.80793 7.55629 0.80793C5.50847 0.80793 3.84839 2.46802 3.84839 4.51583C3.84839 6.56365 5.50847 8.22374 7.55629 8.22374Z" fill="#7e6f6f"/>
<path id="Vector_3" fill-rule="evenodd" clip-rule="evenodd" d="M13.118 8.22379C15.1667 8.22379 16.826 6.56451 16.826 4.51589C16.826 2.46727 15.1667 0.807983 13.118 0.807983C12.6824 0.807983 12.2745 0.900681 11.8852 1.03046C12.6829 2.01696 13.118 3.24723 13.118 4.51589C13.118 5.78454 12.6829 7.01481 11.8852 8.00132C12.2745 8.1311 12.6824 8.22379 13.118 8.22379ZM7.55619 9.15077C5.08116 9.15077 0.140381 10.3929 0.140381 12.8587V15.6396H14.972V12.8587C14.972 10.3929 10.0312 9.15077 7.55619 9.15077Z" fill="#7e6f6f"/>
</g>
</svg>
